REM DIRINDEX 1\2,1\3,1\4,1\5,1\6,1\7,1\8
REM DIRNAME cjc150,folder01,folder02,folder03,folder04,folder05,folder06,folder07
TITLE ""
FILE "008 ‚Å‚é•¶48.mp3" MP3
  TRACK 01 AUDIO
    TITLE "8:cjc150_2242"
    INDEX 01 00:00:00
  TRACK 02 AUDIO
    TITLE "0:"
    INDEX 01 00:01:60
  TRACK 03 AUDIO
    TITLE "2:cjc150_2243"
    INDEX 01 00:02:47
  TRACK 04 AUDIO
    TITLE "0:"
    INDEX 01 00:09:24
  TRACK 05 AUDIO
    TITLE "8:cjc150_2244"
    INDEX 01 00:10:53
  TRACK 06 AUDIO
    TITLE "0:"
    INDEX 01 00:13:30
  TRACK 07 AUDIO
    TITLE "3:cjc150_2245"
    INDEX 01 00:14:13
  TRACK 08 AUDIO
    TITLE "3:cjc150_2246"
    INDEX 01 00:16:02
  TRACK 09 AUDIO
    TITLE "3:cjc150_2247"
    INDEX 01 00:17:70
  TRACK 10 AUDIO
    TITLE "3:cjc150_2248"
    INDEX 01 00:19:34
  TRACK 11 AUDIO
    TITLE "3:cjc150_2249"
    INDEX 01 00:21:08
  TRACK 12 AUDIO
    TITLE "3:cjc150_2250"
    INDEX 01 00:22:64
  TRACK 13 AUDIO
    TITLE "3:cjc150_2251"
    INDEX 01 00:24:53
  TRACK 14 AUDIO
    TITLE "3:cjc150_2252"
    INDEX 01 00:26:66
  TRACK 15 AUDIO
    TITLE "3:cjc150_2253"
    INDEX 01 00:28:70
  TRACK 16 AUDIO
    TITLE "3:cjc150_2254"
    INDEX 01 00:30:59
  TRACK 17 AUDIO
    TITLE "8:cjc150_2255"
    INDEX 01 00:32:54
  TRACK 18 AUDIO
    TITLE "0:"
    INDEX 01 00:35:31
  TRACK 19 AUDIO
    TITLE "4:cjc150_2256"
    INDEX 01 00:36:11
  TRACK 20 AUDIO
    TITLE "4:cjc150_2257"
    INDEX 01 00:38:02
  TRACK 21 AUDIO
    TITLE "4:cjc150_2258"
    INDEX 01 00:40:26
  TRACK 22 AUDIO
    TITLE "4:cjc150_2259"
    INDEX 01 00:42:66
  TRACK 23 AUDIO
    TITLE "4:cjc150_2260"
    INDEX 01 00:45:67
  TRACK 24 AUDIO
    TITLE "4:cjc150_2261"
    INDEX 01 00:49:25
  TRACK 25 AUDIO
    TITLE "8:cjc150_2262"
    INDEX 01 00:53:19
  TRACK 26 AUDIO
    TITLE "0:"
    INDEX 01 00:56:14
  TRACK 27 AUDIO
    TITLE "5:cjc150_2263"
    INDEX 01 00:56:72
  TRACK 28 AUDIO
    TITLE "5:cjc150_2264"
    INDEX 01 00:58:52
  TRACK 29 AUDIO
    TITLE "5:cjc150_2265"
    INDEX 01 01:01:27
  TRACK 30 AUDIO
    TITLE "5:cjc150_2266"
    INDEX 01 01:03:20
  TRACK 31 AUDIO
    TITLE "5:cjc150_2267"
    INDEX 01 01:04:72
  TRACK 32 AUDIO
    TITLE "5:cjc150_2268"
    INDEX 01 01:07:08
  TRACK 33 AUDIO
    TITLE "5:cjc150_2269"
    INDEX 01 01:09:30
  TRACK 34 AUDIO
    TITLE "5:cjc150_2270"
    INDEX 01 01:10:71
  TRACK 35 AUDIO
    TITLE "5:cjc150_2271"
    INDEX 01 01:12:23
  TRACK 36 AUDIO
    TITLE "5:cjc150_2272"
    INDEX 01 01:14:06
  TRACK 37 AUDIO
    TITLE "5:cjc150_2273"
    INDEX 01 01:16:56
  TRACK 38 AUDIO
    TITLE "5:cjc150_2274"
    INDEX 01 01:18:39
  TRACK 39 AUDIO
    TITLE "5:cjc150_2275"
    INDEX 01 01:20:18
  TRACK 40 AUDIO
    TITLE "5:cjc150_2276"
    INDEX 01 01:22:48
  TRACK 41 AUDIO
    TITLE "5:cjc150_2277"
    INDEX 01 01:25:58
  TRACK 42 AUDIO
    TITLE "5:cjc150_2278"
    INDEX 01 01:27:67
  TRACK 43 AUDIO
    TITLE "5:cjc150_2279"
    INDEX 01 01:29:74
  TRACK 44 AUDIO
    TITLE "5:cjc150_2280"
    INDEX 01 01:32:13
  TRACK 45 AUDIO
    TITLE "5:cjc150_2281"
    INDEX 01 01:34:67
  TRACK 46 AUDIO
    TITLE "5:cjc150_2282"
    INDEX 01 01:36:56
  TRACK 47 AUDIO
    TITLE "8:cjc150_2283"
    INDEX 01 01:38:49
  TRACK 48 AUDIO
    TITLE "0:"
    INDEX 01 01:41:32
  TRACK 49 AUDIO
    TITLE "6:cjc150_2284"
    INDEX 01 01:42:26
  TRACK 50 AUDIO
    TITLE "6:cjc150_2285"
    INDEX 01 01:44:01
  TRACK 51 AUDIO
    TITLE "6:cjc150_2286"
    INDEX 01 01:46:43
  TRACK 52 AUDIO
    TITLE "6:cjc150_2287"
    INDEX 01 01:48:36
  TRACK 53 AUDIO
    TITLE "6:cjc150_2288"
    INDEX 01 01:50:19
  TRACK 54 AUDIO
    TITLE "6:cjc150_2289"
    INDEX 01 01:52:69
  TRACK 55 AUDIO
    TITLE "6:cjc150_2290"
    INDEX 01 01:56:14
  TRACK 56 AUDIO
    TITLE "6:cjc150_2291"
    INDEX 01 01:58:54
  TRACK 57 AUDIO
    TITLE "6:cjc150_2292"
    INDEX 01 02:01:09
  TRACK 58 AUDIO
    TITLE "6:cjc150_2293"
    INDEX 01 02:04:57
  TRACK 59 AUDIO
    TITLE "6:cjc150_2294"
    INDEX 01 02:08:70
  TRACK 60 AUDIO
    TITLE "6:cjc150_2295"
    INDEX 01 02:12:27
  TRACK 61 AUDIO
    TITLE "8:cjc150_2296"
    INDEX 01 02:14:55
  TRACK 62 AUDIO
    TITLE "0:"
    INDEX 01 02:16:32
  TRACK 63 AUDIO
    TITLE "7:cjc150_2297"
    INDEX 01 02:17:10
  TRACK 64 AUDIO
    TITLE "7:cjc150_2298"
    INDEX 01 02:23:60
  TRACK 65 AUDIO
    TITLE "0:"
    INDEX 01 02:30:23
